<svg clip-rule="evenodd" fill-rule="evenodd" stroke-linejoin="round" stroke-miterlimit="2" version="1.1" viewBox="0 0 157 61" xml:space="preserve" xmlns="http://www.w3.org/2000/svg"><g transform="translate(-179.43 -177.32)"><path class="logo-text" d="m335.77 202.7v21.744c0 9.024-4.432 13.536-13.296 13.536-2.336 0-4.568-0.312-6.696-0.936s-3.88-1.528-5.256-2.712l2.688-4.512c1.088 0.928 2.416 1.664 3.984 2.208s3.216 0.816 4.944 0.816c2.624 0 4.552-0.632 5.784-1.896s1.848-3.208 1.848-5.832v-1.2c-0.96 1.056-2.128 1.864-3.504 2.424s-2.864 0.84-4.464 0.84c-3.424 0-6.12-0.944-8.088-2.832s-2.952-4.72-2.952-8.496v-13.152h6v12.384c0 2.272 0.52 3.976 1.56 5.112s2.52 1.704 4.44 1.704c2.144 0 3.848-0.656 5.112-1.968s1.896-3.216 1.896-5.712v-11.52h6zm-74.256 24.24c-0.704 0.576-1.56 1.008-2.568 1.296s-2.072 0.432-3.192 0.432c-2.816 0-4.992-0.736-6.528-2.208s-2.304-3.616-2.304-6.432v-22.992h6v5.856h6.864v4.8h-6.864v12.192c0 1.248 0.312 2.2 0.936 2.856s1.496 0.984 2.616 0.984c1.344 0 2.464-0.352 3.36-1.056l1.68 4.272zm-28.368 1.728c-2.656 0-5.04-0.56-7.152-1.68s-3.76-2.68-4.944-4.68-1.776-4.264-1.776-6.792 0.592-4.784 1.776-6.768 2.824-3.536 4.92-4.656 4.488-1.68 7.176-1.68c2.528 0 4.744 0.512 6.648 1.536s3.336 2.496 4.296 4.416l-4.608 2.688c-0.736-1.184-1.656-2.072-2.76-2.664s-2.312-0.888-3.624-0.888c-2.24 0-4.096 0.728-5.568 2.184s-2.208 3.4-2.208 5.832 0.728 4.376 2.184 5.832 3.32 2.184 5.592 2.184c1.312 0 2.52-0.296 3.624-0.888s2.024-1.48 2.76-2.664l4.608 2.688c-0.992 1.92-2.44 3.4-4.344 4.44s-4.104 1.56-6.6 1.56zm42.048 0c-2.592 0-4.928-0.56-7.008-1.68s-3.704-2.68-4.872-4.68-1.752-4.264-1.752-6.792 0.584-4.784 1.752-6.768 2.792-3.536 4.872-4.656 4.416-1.68 7.008-1.68c2.624 0 4.976 0.56 7.056 1.68s3.704 2.672 4.872 4.656 1.752 4.24 1.752 6.768-0.584 4.792-1.752 6.792-2.792 3.56-4.872 4.68-4.432 1.68-7.056 1.68zm-67.584-25.968l-10.992 25.632h-6.192l-10.992-25.632h6.24l7.968 19.008 8.208-19.008h5.76zm1.824 0h6v25.632h-6v-25.632zm88.992 3.744c1.728-2.688 4.768-4.032 9.12-4.032v5.712c-0.512-0.096-0.976-0.144-1.392-0.144-2.336 0-4.16 0.68-5.472 2.04s-1.968 3.32-1.968 5.88v12.432h-6v-25.632h5.712v3.744zm-23.232 17.088c2.208 0 4.032-0.736 5.472-2.208s2.16-3.408 2.16-5.808-0.72-4.336-2.16-5.808-3.264-2.208-5.472-2.208-4.024 0.736-5.448 2.208-2.136 3.408-2.136 5.808 0.712 4.336 2.136 5.808 3.24 2.208 5.448 2.208z" fill-rule="nonzero"/><g transform="matrix(1.2477 0 0 1.4879 -49.306 -85.501)"><path d="m209.93 176.64l7.318 14.636h-14.636l7.318-14.636z" class="logo-triangle"/></g></g></svg>
